ISO-10303-21;
HEADER;
FILE_DESCRIPTION(('ViewDefinition[DesignTransferView]'),'2;1');
FILE_NAME('/dev/null','2026-09-22T22:02:35+03:00',(''),(''),'IfcOpenShell 0.8.5','IfcOpenShell 0.8.5','Nobody');
FILE_SCHEMA(('IFC4'));
ENDSEC;
DATA;
#1=IFCPROJECT('1qOZaGbT957f9od2cmHFsY',$,'RND Demo Tower',$,$,$,$,(#10),#5);
#2=IFCSIUNIT(*,.LENGTHUNIT.,.MILLI.,.METRE.);
#3=IFCSIUNIT(*,.AREAUNIT.,$,.SQUARE_METRE.);
#4=IFCSIUNIT(*,.VOLUMEUNIT.,$,.CUBIC_METRE.);
#5=IFCUNITASSIGNMENT((#4,#2,#3));
#6=IFCCARTESIANPOINT((0.,0.,0.));
#7=IFCDIRECTION((0.,0.,1.));
#8=IFCDIRECTION((1.,0.,0.));
#9=IFCAXIS2PLACEMENT3D(#6,#7,#8);
#10=IFCGEOMETRICREPRESENTATIONCONTEXT($,'Model',3,1.0000000000000001E-05,#9,$);
#11=IFCGEOMETRICREPRESENTATIONSUBCONTEXT('Body','Model',*,*,*,*,#10,$,.MODEL_VIEW.,$);
#12=IFCSITE('0W1d283O98Fugg_kuc_4jE',$,'Site',$,$,$,$,$,$,$,$,$,$,$);
#13=IFCBUILDING('1d3wlXQD51Le12bxBluiyN',$,'Tower A',$,$,$,$,$,$,$,$,$);
#14=IFCBUILDINGSTOREY('11l4GLYWb4_x7ft4bxpdaI',$,'L00 Ground',$,$,$,$,$,$,0.);
#15=IFCBUILDINGSTOREY('3sOwfrJ1L2dQy28HBL7Uf3',$,'L01 First',$,$,$,$,$,$,4.);
#16=IFCBUILDINGSTOREY('1vXytMsGLDBwfsrbz7M5Zf',$,'L02 Second',$,$,$,$,$,$,$);
#17=IFCRELAGGREGATES('0WtgbsbOj78fErlT5d5sbZ',$,$,$,#1,(#12));
#18=IFCRELAGGREGATES('3x7nkWEez6tBAK2gvcj6Ok',$,$,$,#12,(#13));
#19=IFCRELAGGREGATES('2scXsSzq9D3gSj27rhA0UD',$,$,$,#13,(#15,#16,#14));
#20=IFCWALL('2EAQxSWmX4afxsYgqYnSuI',$,'WAL-EXT-01',$,$,#36,#30,$,$);
#24=IFCRECTANGLEPROFILEDEF(.AREA.,$,$,1.,0.20000000000000001);
#25=IFCDIRECTION((0.,0.,1.));
#26=IFCCARTESIANPOINT((0.,0.,0.));
#27=IFCAXIS2PLACEMENT3D(#26,$,$);
#28=IFCEXTRUDEDAREASOLID(#24,#27,#25,3.);
#29=IFCSHAPEREPRESENTATION(#11,'Body','SweptSolid',(#28));
#30=IFCPRODUCTDEFINITIONSHAPE($,$,(#29));
#31=IFCRELCONTAINEDINSPATIALSTRUCTURE('0JefakAwHEZe2JpNeGQG1F',$,$,$,(#349,#322,#37,#20,#101,#85,#69,#53,#306),#14);
#32=IFCCARTESIANPOINT((0.,0.,0.));
#33=IFCDIRECTION((0.,0.,1.));
#34=IFCDIRECTION((1.,0.,0.));
#35=IFCAXIS2PLACEMENT3D(#32,#33,#34);
#36=IFCLOCALPLACEMENT($,#35);
#37=IFCWALL('3qeuLSEvT1TAuPwjtwIYoZ',$,'WAL-EXT-02',$,$,#52,#47,$,$);
#41=IFCRECTANGLEPROFILEDEF(.AREA.,$,$,1.,0.20000000000000001);
#42=IFCDIRECTION((0.,0.,1.));
#43=IFCCARTESIANPOINT((0.,0.,0.));
#44=IFCAXIS2PLACEMENT3D(#43,$,$);
#45=IFCEXTRUDEDAREASOLID(#41,#44,#42,3.);
#46=IFCSHAPEREPRESENTATION(#11,'Body','SweptSolid',(#45));
#47=IFCPRODUCTDEFINITIONSHAPE($,$,(#46));
#48=IFCCARTESIANPOINT((5.,0.,0.));
#49=IFCDIRECTION((0.,0.,1.));
#50=IFCDIRECTION((1.,0.,0.));
#51=IFCAXIS2PLACEMENT3D(#48,#49,#50);
#52=IFCLOCALPLACEMENT($,#51);
#53=IFCWALL('3PUOfidUz3HuA_ZvfjKUyu',$,'WAL-EXT-03',$,$,#68,#63,$,$);
#57=IFCRECTANGLEPROFILEDEF(.AREA.,$,$,1.,0.20000000000000001);
#58=IFCDIRECTION((0.,0.,1.));
#59=IFCCARTESIANPOINT((0.,0.,0.));
#60=IFCAXIS2PLACEMENT3D(#59,$,$);
#61=IFCEXTRUDEDAREASOLID(#57,#60,#58,3.);
#62=IFCSHAPEREPRESENTATION(#11,'Body','SweptSolid',(#61));
#63=IFCPRODUCTDEFINITIONSHAPE($,$,(#62));
#64=IFCCARTESIANPOINT((10.,0.,0.));
#65=IFCDIRECTION((0.,0.,1.));
#66=IFCDIRECTION((1.,0.,0.));
#67=IFCAXIS2PLACEMENT3D(#64,#65,#66);
#68=IFCLOCALPLACEMENT($,#67);
#69=IFCWALL('3qqJJE1Gr7Te17uH76wITW',$,'WAL-EXT-04',$,$,#84,#79,$,$);
#73=IFCRECTANGLEPROFILEDEF(.AREA.,$,$,1.,0.20000000000000001);
#74=IFCDIRECTION((0.,0.,1.));
#75=IFCCARTESIANPOINT((0.,0.,0.));
#76=IFCAXIS2PLACEMENT3D(#75,$,$);
#77=IFCEXTRUDEDAREASOLID(#73,#76,#74,3.);
#78=IFCSHAPEREPRESENTATION(#11,'Body','SweptSolid',(#77));
#79=IFCPRODUCTDEFINITIONSHAPE($,$,(#78));
#80=IFCCARTESIANPOINT((15.,0.,0.));
#81=IFCDIRECTION((0.,0.,1.));
#82=IFCDIRECTION((1.,0.,0.));
#83=IFCAXIS2PLACEMENT3D(#80,#81,#82);
#84=IFCLOCALPLACEMENT($,#83);
#85=IFCWALL('3zQ4LrtTvAd8lWijKceu1i',$,'WAL-EXT-05',$,$,#100,#95,$,$);
#89=IFCRECTANGLEPROFILEDEF(.AREA.,$,$,1.,0.20000000000000001);
#90=IFCDIRECTION((0.,0.,1.));
#91=IFCCARTESIANPOINT((0.,0.,0.));
#92=IFCAXIS2PLACEMENT3D(#91,$,$);
#93=IFCEXTRUDEDAREASOLID(#89,#92,#90,3.);
#94=IFCSHAPEREPRESENTATION(#11,'Body','SweptSolid',(#93));
#95=IFCPRODUCTDEFINITIONSHAPE($,$,(#94));
#96=IFCCARTESIANPOINT((20.,0.,0.));
#97=IFCDIRECTION((0.,0.,1.));
#98=IFCDIRECTION((1.,0.,0.));
#99=IFCAXIS2PLACEMENT3D(#96,#97,#98);
#100=IFCLOCALPLACEMENT($,#99);
#101=IFCWALL('1edy$Q0yv0fBGj9Fh0Rul0',$,'WAL-EXT-06',$,$,#116,#111,$,$);
#105=IFCRECTANGLEPROFILEDEF(.AREA.,$,$,1.,0.20000000000000001);
#106=IFCDIRECTION((0.,0.,1.));
#107=IFCCARTESIANPOINT((0.,0.,0.));
#108=IFCAXIS2PLACEMENT3D(#107,$,$);
#109=IFCEXTRUDEDAREASOLID(#105,#108,#106,3.);
#110=IFCSHAPEREPRESENTATION(#11,'Body','SweptSolid',(#109));
#111=IFCPRODUCTDEFINITIONSHAPE($,$,(#110));
#112=IFCCARTESIANPOINT((25.,0.,0.));
#113=IFCDIRECTION((0.,0.,1.));
#114=IFCDIRECTION((1.,0.,0.));
#115=IFCAXIS2PLACEMENT3D(#112,#113,#114);
#116=IFCLOCALPLACEMENT($,#115);
#117=IFCPROPERTYSET('1XvlLWVzX6cAaoBFJt9fqk',$,'Pset_WallCommon',$,(#119,#120));
#118=IFCRELDEFINESBYPROPERTIES('0gXRoyHJbFFOoFrGI53EHq',$,$,$,(#20),#117);
#119=IFCPROPERTYSINGLEVALUE('IsExternal',$,IFCBOOLEAN(.T.),$);
#120=IFCPROPERTYSINGLEVALUE('LoadBearing',$,IFCBOOLEAN(.T.),$);
#121=IFCPROPERTYSET('36eUaq9qn2jPOBGhysFwHo',$,'Pset_WallCommon',$,(#123,#124));
#122=IFCRELDEFINESBYPROPERTIES('0T7D$Teo9FVuIesCRtCISS',$,$,$,(#37),#121);
#123=IFCPROPERTYSINGLEVALUE('IsExternal',$,IFCBOOLEAN(.T.),$);
#124=IFCPROPERTYSINGLEVALUE('LoadBearing',$,IFCBOOLEAN(.T.),$);
#125=IFCDOOR('2Ibb4whKn6NQyhfZWpfPVc',$,'DR-01',$,$,#141,#135,$,$,$,$,$,$);
#129=IFCRECTANGLEPROFILEDEF(.AREA.,$,$,1.,0.20000000000000001);
#130=IFCDIRECTION((0.,0.,1.));
#131=IFCCARTESIANPOINT((0.,0.,0.));
#132=IFCAXIS2PLACEMENT3D(#131,$,$);
#133=IFCEXTRUDEDAREASOLID(#129,#132,#130,3.);
#134=IFCSHAPEREPRESENTATION(#11,'Body','SweptSolid',(#133));
#135=IFCPRODUCTDEFINITIONSHAPE($,$,(#134));
#136=IFCRELCONTAINEDINSPATIALSTRUCTURE('1tUC3cA2X0shiaHBMC1qVf',$,$,$,(#466,#450,#274,#125,#158,#142,#194,#226,#210,#242,#258,#174,#434,#365,#290),#15);
#137=IFCCARTESIANPOINT((0.,2.,0.));
#138=IFCDIRECTION((0.,0.,1.));
#139=IFCDIRECTION((1.,0.,0.));
#140=IFCAXIS2PLACEMENT3D(#137,#138,#139);
#141=IFCLOCALPLACEMENT($,#140);
#142=IFCDOOR('1JkB21yXv1fhLKJ9A0iXB6',$,'DR-02',$,$,#157,#152,$,$,$,$,$,$);
#146=IFCRECTANGLEPROFILEDEF(.AREA.,$,$,1.,0.20000000000000001);
#147=IFCDIRECTION((0.,0.,1.));
#148=IFCCARTESIANPOINT((0.,0.,0.));
#149=IFCAXIS2PLACEMENT3D(#148,$,$);
#150=IFCEXTRUDEDAREASOLID(#146,#149,#147,3.);
#151=IFCSHAPEREPRESENTATION(#11,'Body','SweptSolid',(#150));
#152=IFCPRODUCTDEFINITIONSHAPE($,$,(#151));
#153=IFCCARTESIANPOINT((3.,2.,0.));
#154=IFCDIRECTION((0.,0.,1.));
#155=IFCDIRECTION((1.,0.,0.));
#156=IFCAXIS2PLACEMENT3D(#153,#154,#155);
#157=IFCLOCALPLACEMENT($,#156);
#158=IFCDOOR('3kA1Gzxx57A9q4mvSmSJmj',$,'DR-03',$,$,#173,#168,$,$,$,$,$,$);
#162=IFCRECTANGLEPROFILEDEF(.AREA.,$,$,1.,0.20000000000000001);
#163=IFCDIRECTION((0.,0.,1.));
#164=IFCCARTESIANPOINT((0.,0.,0.));
#165=IFCAXIS2PLACEMENT3D(#164,$,$);
#166=IFCEXTRUDEDAREASOLID(#162,#165,#163,3.);
#167=IFCSHAPEREPRESENTATION(#11,'Body','SweptSolid',(#166));
#168=IFCPRODUCTDEFINITIONSHAPE($,$,(#167));
#169=IFCCARTESIANPOINT((6.,2.,0.));
#170=IFCDIRECTION((0.,0.,1.));
#171=IFCDIRECTION((1.,0.,0.));
#172=IFCAXIS2PLACEMENT3D(#169,#170,#171);
#173=IFCLOCALPLACEMENT($,#172);
#174=IFCDOOR('2l5dkgvE5A2uSdG4N8B4Yc',$,'DR-04',$,$,#189,#184,$,$,$,$,$,$);
#178=IFCRECTANGLEPROFILEDEF(.AREA.,$,$,1.,0.20000000000000001);
#179=IFCDIRECTION((0.,0.,1.));
#180=IFCCARTESIANPOINT((0.,0.,0.));
#181=IFCAXIS2PLACEMENT3D(#180,$,$);
#182=IFCEXTRUDEDAREASOLID(#178,#181,#179,3.);
#183=IFCSHAPEREPRESENTATION(#11,'Body','SweptSolid',(#182));
#184=IFCPRODUCTDEFINITIONSHAPE($,$,(#183));
#185=IFCCARTESIANPOINT((9.,2.,0.));
#186=IFCDIRECTION((0.,0.,1.));
#187=IFCDIRECTION((1.,0.,0.));
#188=IFCAXIS2PLACEMENT3D(#185,#186,#187);
#189=IFCLOCALPLACEMENT($,#188);
#190=IFCPROPERTYSET('3FpUi6nu9CTwu5yYmloHSa',$,'Pset_DoorCommon',$,(#192,#193));
#191=IFCRELDEFINESBYPROPERTIES('3I78FbP516FOgpHRTV7zqj',$,$,$,(#125),#190);
#192=IFCPROPERTYSINGLEVALUE('FireRating',$,IFCLABEL('EI60'),$);
#193=IFCPROPERTYSINGLEVALUE('IsExternal',$,IFCBOOLEAN(.F.),$);
#194=IFCSLAB('3G5jXf5xL9Av3a19vw_GXX',$,'SLB-01',$,$,#209,#204,$,.FLOOR.);
#198=IFCRECTANGLEPROFILEDEF(.AREA.,$,$,1.,0.20000000000000001);
#199=IFCDIRECTION((0.,0.,1.));
#200=IFCCARTESIANPOINT((0.,0.,0.));
#201=IFCAXIS2PLACEMENT3D(#200,$,$);
#202=IFCEXTRUDEDAREASOLID(#198,#201,#199,3.);
#203=IFCSHAPEREPRESENTATION(#11,'Body','SweptSolid',(#202));
#204=IFCPRODUCTDEFINITIONSHAPE($,$,(#203));
#205=IFCCARTESIANPOINT((0.,0.,0.));
#206=IFCDIRECTION((0.,0.,1.));
#207=IFCDIRECTION((1.,0.,0.));
#208=IFCAXIS2PLACEMENT3D(#205,#206,#207);
#209=IFCLOCALPLACEMENT($,#208);
#210=IFCSLAB('3W_Os6pi99P96Ntxu_nFoX',$,'SLB-02',$,$,#225,#220,$,.FLOOR.);
#214=IFCRECTANGLEPROFILEDEF(.AREA.,$,$,1.,0.20000000000000001);
#215=IFCDIRECTION((0.,0.,1.));
#216=IFCCARTESIANPOINT((0.,0.,0.));
#217=IFCAXIS2PLACEMENT3D(#216,$,$);
#218=IFCEXTRUDEDAREASOLID(#214,#217,#215,3.);
#219=IFCSHAPEREPRESENTATION(#11,'Body','SweptSolid',(#218));
#220=IFCPRODUCTDEFINITIONSHAPE($,$,(#219));
#221=IFCCARTESIANPOINT((0.,6.,0.));
#222=IFCDIRECTION((0.,0.,1.));
#223=IFCDIRECTION((1.,0.,0.));
#224=IFCAXIS2PLACEMENT3D(#221,#222,#223);
#225=IFCLOCALPLACEMENT($,#224);
#226=IFCSLAB('0aXiaARtb0Cf_s$S2sdR1i',$,'SLB-03',$,$,#241,#236,$,.FLOOR.);
#230=IFCRECTANGLEPROFILEDEF(.AREA.,$,$,1.,0.20000000000000001);
#231=IFCDIRECTION((0.,0.,1.));
#232=IFCCARTESIANPOINT((0.,0.,0.));
#233=IFCAXIS2PLACEMENT3D(#232,$,$);
#234=IFCEXTRUDEDAREASOLID(#230,#233,#231,3.);
#235=IFCSHAPEREPRESENTATION(#11,'Body','SweptSolid',(#234));
#236=IFCPRODUCTDEFINITIONSHAPE($,$,(#235));
#237=IFCCARTESIANPOINT((0.,12.,0.));
#238=IFCDIRECTION((0.,0.,1.));
#239=IFCDIRECTION((1.,0.,0.));
#240=IFCAXIS2PLACEMENT3D(#237,#238,#239);
#241=IFCLOCALPLACEMENT($,#240);
#242=IFCWINDOW('3TtJpUnJnBAg0hq_jP8aub',$,'WIN-01',$,$,#257,#252,$,$,$,$,$,$);
#246=IFCRECTANGLEPROFILEDEF(.AREA.,$,$,1.,0.20000000000000001);
#247=IFCDIRECTION((0.,0.,1.));
#248=IFCCARTESIANPOINT((0.,0.,0.));
#249=IFCAXIS2PLACEMENT3D(#248,$,$);
#250=IFCEXTRUDEDAREASOLID(#246,#249,#247,3.);
#251=IFCSHAPEREPRESENTATION(#11,'Body','SweptSolid',(#250));
#252=IFCPRODUCTDEFINITIONSHAPE($,$,(#251));
#253=IFCCARTESIANPOINT((0.,8.,1.));
#254=IFCDIRECTION((0.,0.,1.));
#255=IFCDIRECTION((1.,0.,0.));
#256=IFCAXIS2PLACEMENT3D(#253,#254,#255);
#257=IFCLOCALPLACEMENT($,#256);
#258=IFCWINDOW('1RwlCpKvrDlRX0O_qNeOg6',$,'WIN-02',$,$,#273,#268,$,$,$,$,$,$);
#262=IFCRECTANGLEPROFILEDEF(.AREA.,$,$,1.,0.20000000000000001);
#263=IFCDIRECTION((0.,0.,1.));
#264=IFCCARTESIANPOINT((0.,0.,0.));
#265=IFCAXIS2PLACEMENT3D(#264,$,$);
#266=IFCEXTRUDEDAREASOLID(#262,#265,#263,3.);
#267=IFCSHAPEREPRESENTATION(#11,'Body','SweptSolid',(#266));
#268=IFCPRODUCTDEFINITIONSHAPE($,$,(#267));
#269=IFCCARTESIANPOINT((4.,8.,1.));
#270=IFCDIRECTION((0.,0.,1.));
#271=IFCDIRECTION((1.,0.,0.));
#272=IFCAXIS2PLACEMENT3D(#269,#270,#271);
#273=IFCLOCALPLACEMENT($,#272);
#274=IFCWINDOW('3IuI8cfTH1jPMLrxokcZCP',$,'WIN-03',$,$,#289,#284,$,$,$,$,$,$);
#278=IFCRECTANGLEPROFILEDEF(.AREA.,$,$,1.,0.20000000000000001);
#279=IFCDIRECTION((0.,0.,1.));
#280=IFCCARTESIANPOINT((0.,0.,0.));
#281=IFCAXIS2PLACEMENT3D(#280,$,$);
#282=IFCEXTRUDEDAREASOLID(#278,#281,#279,3.);
#283=IFCSHAPEREPRESENTATION(#11,'Body','SweptSolid',(#282));
#284=IFCPRODUCTDEFINITIONSHAPE($,$,(#283));
#285=IFCCARTESIANPOINT((8.,8.,1.));
#286=IFCDIRECTION((0.,0.,1.));
#287=IFCDIRECTION((1.,0.,0.));
#288=IFCAXIS2PLACEMENT3D(#285,#286,#287);
#289=IFCLOCALPLACEMENT($,#288);
#290=IFCWINDOW('1B$XKeSBL439wL0s6YEJK8',$,'WIN-04',$,$,#305,#300,$,$,$,$,$,$);
#294=IFCRECTANGLEPROFILEDEF(.AREA.,$,$,1.,0.20000000000000001);
#295=IFCDIRECTION((0.,0.,1.));
#296=IFCCARTESIANPOINT((0.,0.,0.));
#297=IFCAXIS2PLACEMENT3D(#296,$,$);
#298=IFCEXTRUDEDAREASOLID(#294,#297,#295,3.);
#299=IFCSHAPEREPRESENTATION(#11,'Body','SweptSolid',(#298));
#300=IFCPRODUCTDEFINITIONSHAPE($,$,(#299));
#301=IFCCARTESIANPOINT((12.,8.,1.));
#302=IFCDIRECTION((0.,0.,1.));
#303=IFCDIRECTION((1.,0.,0.));
#304=IFCAXIS2PLACEMENT3D(#301,#302,#303);
#305=IFCLOCALPLACEMENT($,#304);
#306=IFCWALL('0St8GIndH8reDQnUuIh0Vq',$,'WAL-DUP-GUID',$,$,#321,#316,$,$);
#310=IFCRECTANGLEPROFILEDEF(.AREA.,$,$,1.,0.20000000000000001);
#311=IFCDIRECTION((0.,0.,1.));
#312=IFCCARTESIANPOINT((0.,0.,0.));
#313=IFCAXIS2PLACEMENT3D(#312,$,$);
#314=IFCEXTRUDEDAREASOLID(#310,#313,#311,3.);
#315=IFCSHAPEREPRESENTATION(#11,'Body','SweptSolid',(#314));
#316=IFCPRODUCTDEFINITIONSHAPE($,$,(#315));
#317=IFCCARTESIANPOINT((40.,0.,0.));
#318=IFCDIRECTION((0.,0.,1.));
#319=IFCDIRECTION((1.,0.,0.));
#320=IFCAXIS2PLACEMENT3D(#317,#318,#319);
#321=IFCLOCALPLACEMENT($,#320);
#322=IFCWALL('0St8GIndH8reDQnUuIh0Vq',$,'WAL-DUP-GUID-B',$,$,#337,#332,$,$);
#326=IFCRECTANGLEPROFILEDEF(.AREA.,$,$,1.,0.20000000000000001);
#327=IFCDIRECTION((0.,0.,1.));
#328=IFCCARTESIANPOINT((0.,0.,0.));
#329=IFCAXIS2PLACEMENT3D(#328,$,$);
#330=IFCEXTRUDEDAREASOLID(#326,#329,#327,3.);
#331=IFCSHAPEREPRESENTATION(#11,'Body','SweptSolid',(#330));
#332=IFCPRODUCTDEFINITIONSHAPE($,$,(#331));
#333=IFCCARTESIANPOINT((41.,0.,0.));
#334=IFCDIRECTION((0.,0.,1.));
#335=IFCDIRECTION((1.,0.,0.));
#336=IFCAXIS2PLACEMENT3D(#333,#334,#335);
#337=IFCLOCALPLACEMENT($,#336);
#338=IFCPIPESEGMENT('1BBsNXpC99tRgygkIMxw2j',$,'PIP-ORPHAN-01',$,$,#341,#348,$,$);
#339=IFCCARTESIANPOINT((2.,2.,3.5));
#340=IFCAXIS2PLACEMENT3D(#339,$,$);
#341=IFCLOCALPLACEMENT($,#340);
#342=IFCRECTANGLEPROFILEDEF(.AREA.,$,$,1.,0.20000000000000001);
#343=IFCDIRECTION((0.,0.,1.));
#344=IFCCARTESIANPOINT((0.,0.,0.));
#345=IFCAXIS2PLACEMENT3D(#344,$,$);
#346=IFCEXTRUDEDAREASOLID(#342,#345,#343,3.);
#347=IFCSHAPEREPRESENTATION(#11,'Body','SweptSolid',(#346));
#348=IFCPRODUCTDEFINITIONSHAPE($,$,(#347));
#349=IFCWALL('0ZixPLYqz3IvchyS8Q6A8v',$,'   ',$,$,#364,#359,$,$);
#353=IFCRECTANGLEPROFILEDEF(.AREA.,$,$,1.,0.20000000000000001);
#354=IFCDIRECTION((0.,0.,1.));
#355=IFCCARTESIANPOINT((0.,0.,0.));
#356=IFCAXIS2PLACEMENT3D(#355,$,$);
#357=IFCEXTRUDEDAREASOLID(#353,#356,#354,3.);
#358=IFCSHAPEREPRESENTATION(#11,'Body','SweptSolid',(#357));
#359=IFCPRODUCTDEFINITIONSHAPE($,$,(#358));
#360=IFCCARTESIANPOINT((50.,0.,0.));
#361=IFCDIRECTION((0.,0.,1.));
#362=IFCDIRECTION((1.,0.,0.));
#363=IFCAXIS2PLACEMENT3D(#360,#361,#362);
#364=IFCLOCALPLACEMENT($,#363);
#365=IFCDOOR('3BVZSGiI57Kv07CKpMNsib',$,'DR-NOGEO-01',$,$,#373,$,$,$,$,$,$,$);
#369=IFCCARTESIANPOINT((20.,2.,0.));
#370=IFCDIRECTION((0.,0.,1.));
#371=IFCDIRECTION((1.,0.,0.));
#372=IFCAXIS2PLACEMENT3D(#369,#370,#371);
#373=IFCLOCALPLACEMENT($,#372);
#374=IFCBUILDINGELEMENTPROXY('30qd8_58TC3gdt8fnQo2rB',$,'UNKNOWN-ASSEMBLY-01',$,$,#390,#384,$,$);
#378=IFCRECTANGLEPROFILEDEF(.AREA.,$,$,1.,0.20000000000000001);
#379=IFCDIRECTION((0.,0.,1.));
#380=IFCCARTESIANPOINT((0.,0.,0.));
#381=IFCAXIS2PLACEMENT3D(#380,$,$);
#382=IFCEXTRUDEDAREASOLID(#378,#381,#379,3.);
#383=IFCSHAPEREPRESENTATION(#11,'Body','SweptSolid',(#382));
#384=IFCPRODUCTDEFINITIONSHAPE($,$,(#383));
#385=IFCRELCONTAINEDINSPATIALSTRUCTURE('0XoRJHcl11BeKAX89TziCH',$,$,$,(#374,#407,#391),#16);
#386=IFCCARTESIANPOINT((1.,1.,0.));
#387=IFCDIRECTION((0.,0.,1.));
#388=IFCDIRECTION((1.,0.,0.));
#389=IFCAXIS2PLACEMENT3D(#386,#387,#388);
#390=IFCLOCALPLACEMENT($,#389);
#391=IFCWALL('33RsHnG6HCZQkyBo4GWKza',$,'WAL-CLONE',$,$,#406,#401,$,$);
#395=IFCRECTANGLEPROFILEDEF(.AREA.,$,$,1.,0.20000000000000001);
#396=IFCDIRECTION((0.,0.,1.));
#397=IFCCARTESIANPOINT((0.,0.,0.));
#398=IFCAXIS2PLACEMENT3D(#397,$,$);
#399=IFCEXTRUDEDAREASOLID(#395,#398,#396,3.);
#400=IFCSHAPEREPRESENTATION(#11,'Body','SweptSolid',(#399));
#401=IFCPRODUCTDEFINITIONSHAPE($,$,(#400));
#402=IFCCARTESIANPOINT((10.,10.,0.));
#403=IFCDIRECTION((0.,0.,1.));
#404=IFCDIRECTION((1.,0.,0.));
#405=IFCAXIS2PLACEMENT3D(#402,#403,#404);
#406=IFCLOCALPLACEMENT($,#405);
#407=IFCWALL('27mAKspe12qArkZ_pqjVmJ',$,'WAL-CLONE',$,$,#422,#417,$,$);
#411=IFCRECTANGLEPROFILEDEF(.AREA.,$,$,1.,0.20000000000000001);
#412=IFCDIRECTION((0.,0.,1.));
#413=IFCCARTESIANPOINT((0.,0.,0.));
#414=IFCAXIS2PLACEMENT3D(#413,$,$);
#415=IFCEXTRUDEDAREASOLID(#411,#414,#412,3.);
#416=IFCSHAPEREPRESENTATION(#11,'Body','SweptSolid',(#415));
#417=IFCPRODUCTDEFINITIONSHAPE($,$,(#416));
#418=IFCCARTESIANPOINT((10.,10.,0.));
#419=IFCDIRECTION((0.,0.,1.));
#420=IFCDIRECTION((1.,0.,0.));
#421=IFCAXIS2PLACEMENT3D(#418,#419,#420);
#422=IFCLOCALPLACEMENT($,#421);
#423=IFCOPENINGELEMENT('2fN_b5Khf9Ke4Oq2$FwSYR',$,'OPN-ORPHAN-01',$,$,#426,#433,$,$);
#424=IFCCARTESIANPOINT((3.,0.,1.));
#425=IFCAXIS2PLACEMENT3D(#424,$,$);
#426=IFCLOCALPLACEMENT($,#425);
#427=IFCRECTANGLEPROFILEDEF(.AREA.,$,$,0.90000000000000002,0.29999999999999999);
#428=IFCDIRECTION((0.,0.,1.));
#429=IFCCARTESIANPOINT((0.,0.,0.));
#430=IFCAXIS2PLACEMENT3D(#429,$,$);
#431=IFCEXTRUDEDAREASOLID(#427,#430,#428,2.1000000000000001);
#432=IFCSHAPEREPRESENTATION(#11,'Body','SweptSolid',(#431));
#433=IFCPRODUCTDEFINITIONSHAPE($,$,(#432));
#434=IFCDUCTSEGMENT('38KM2yUfT2lu0WGH$puNOW',$,'DCT-01',$,$,#449,#444,$,$);
#438=IFCRECTANGLEPROFILEDEF(.AREA.,$,$,1.,0.20000000000000001);
#439=IFCDIRECTION((0.,0.,1.));
#440=IFCCARTESIANPOINT((0.,0.,0.));
#441=IFCAXIS2PLACEMENT3D(#440,$,$);
#442=IFCEXTRUDEDAREASOLID(#438,#441,#439,3.);
#443=IFCSHAPEREPRESENTATION(#11,'Body','SweptSolid',(#442));
#444=IFCPRODUCTDEFINITIONSHAPE($,$,(#443));
#445=IFCCARTESIANPOINT((0.,5.,3.2000000000000002));
#446=IFCDIRECTION((0.,0.,1.));
#447=IFCDIRECTION((1.,0.,0.));
#448=IFCAXIS2PLACEMENT3D(#445,#446,#447);
#449=IFCLOCALPLACEMENT($,#448);
#450=IFCDUCTSEGMENT('0RtmsKgJfFQAltMy6dIKqK',$,'DCT-02',$,$,#465,#460,$,$);
#454=IFCRECTANGLEPROFILEDEF(.AREA.,$,$,1.,0.20000000000000001);
#455=IFCDIRECTION((0.,0.,1.));
#456=IFCCARTESIANPOINT((0.,0.,0.));
#457=IFCAXIS2PLACEMENT3D(#456,$,$);
#458=IFCEXTRUDEDAREASOLID(#454,#457,#455,3.);
#459=IFCSHAPEREPRESENTATION(#11,'Body','SweptSolid',(#458));
#460=IFCPRODUCTDEFINITIONSHAPE($,$,(#459));
#461=IFCCARTESIANPOINT((2.,5.,3.2000000000000002));
#462=IFCDIRECTION((0.,0.,1.));
#463=IFCDIRECTION((1.,0.,0.));
#464=IFCAXIS2PLACEMENT3D(#461,#462,#463);
#465=IFCLOCALPLACEMENT($,#464);
#466=IFCDUCTSEGMENT('2uWLiRzMjDyuH6uPCdvpzY',$,'DCT-03',$,$,#481,#476,$,$);
#470=IFCRECTANGLEPROFILEDEF(.AREA.,$,$,1.,0.20000000000000001);
#471=IFCDIRECTION((0.,0.,1.));
#472=IFCCARTESIANPOINT((0.,0.,0.));
#473=IFCAXIS2PLACEMENT3D(#472,$,$);
#474=IFCEXTRUDEDAREASOLID(#470,#473,#471,3.);
#475=IFCSHAPEREPRESENTATION(#11,'Body','SweptSolid',(#474));
#476=IFCPRODUCTDEFINITIONSHAPE($,$,(#475));
#477=IFCCARTESIANPOINT((4.,5.,3.2000000000000002));
#478=IFCDIRECTION((0.,0.,1.));
#479=IFCDIRECTION((1.,0.,0.));
#480=IFCAXIS2PLACEMENT3D(#477,#478,#479);
#481=IFCLOCALPLACEMENT($,#480);
ENDSEC;
END-ISO-10303-21;
